# xmcd CD database file
#
# Track frame offsets:
#	150
#	20627
#	40387
#
# Disc length: 830 seconds
#
# Revision: 1
# Processed by: cddbd v1.5PL3 Copyright (c) Steve Scherf et al.
# Submitted via: CDex 1.51
#
DISCID=20033c03
DTITLE=Shoppy - EP
DYEAR=2002
DGENRE=JPop
TTITLE0=Labrynthia
TTITLE1=Backbone
TTITLE2=Insane in the Brain
EXTD=YEAR: 2002
EXTT0=
EXTT1=
EXTT2=
PLAYORDER=
